<svg width="384" height="512" viewBox="0 0 384 512" fill="none" xmlns="http://www.w3.org/2000/svg">
<g clip-path="url(#clip0_1302_6024)">
<path d="M368 177C368 79.8 289.2 1 192 1C94.8 1 16 79.8 16 177C16 263.26 78.1 334.9 160 349.1V384.15H112C103.164 384.15 96 391.312 96 400.15V432.15C96 440.986 103.164 448.15 112 448.15H160V496.15C160 504.986 167.164 512.15 176 512.15H208C216.838 512.15 224 504.986 224 496.15V448.15H272C280.838 448.15 288 440.986 288 432.15V400.15C288 391.312 280.838 384.15 272 384.15H224V349.1C305.9 334.9 368 263.3 368 177ZM192 273C139.07 273 96 229.93 96 177C96 124.06 139.07 81 192 81C244.94 81 288 124.06 288 177C288 229.9 244.9 273 192 273Z" fill="white"/>
</g>
<defs>
<clipPath id="clip0_1302_6024">
<rect width="384" height="512" fill="white"/>
</clipPath>
</defs>
</svg>
